<?xml version='1.0' encoding='UTF-8' standalone='no'?>
<!-- Created with Inkscape (http://www.inkscape.org/) -->
  <svg
  xmlns="http://www.w3.org/2000/svg"
  xmlns:svg="http://www.w3.org/2000/svg"
  xmlns:rdf="http://www.w3.org/1999/02/22-rdf-syntax-ns#"
  xmlns:cc="http://creativecommons.org/ns#"
  xmlns:dc="http://purl.org/dc/elements/1.1/"
  version="1.1"
  gorn="0"
  width="22.887632mm"
  xml:space="preserve"
  viewBox="0 0 901.08787 1739.7363"
  height="44.189304mm"
  id="svg2985"
  fill-rule="evenodd">
  <desc
    id="desc2">
    <referenceFile>DHT22-gnd-vcc-dta-module_1_breadboard.svg</referenceFile>
  </desc>
  <metadata
    id="metadata3162">
    <rdf:RDF>
      <cc:Work
        rdf:about="">
        <dc:format>image/svg+xml</dc:format>
        <dc:type
          rdf:resource="http://purl.org/dc/dcmitype/StillImage"
        />
      </cc:Work>
    </rdf:RDF>
  </metadata>
  <defs
    id="defs3160">
    <linearGradient
      y1="4.9299998"
      href="#id0"
      y2="4.2379999"
      x1="4.6118999"
      x2="4.6118999"
      gradientUnits="userSpaceOnUse"
      id="linearGradient3164"
    />
    <linearGradient
      y1="4.9299998"
      href="#id0"
      y2="4.2379999"
      x1="4.6118999"
      x2="4.6118999"
      gradientUnits="userSpaceOnUse"
      id="linearGradient3166"
    />
    <linearGradient
      y1="4.9299998"
      href="#id0"
      y2="4.2379999"
      x1="4.6118999"
      x2="4.6118999"
      gradientUnits="userSpaceOnUse"
      id="linearGradient3168"
    />
    <defs
      id="defs2988">
      <style
        type="text/css"
        id="style2990"
      />
      <linearGradient
        y1="4.9299998"
        y2="4.2379999"
        x1="4.6118999"
        x2="4.6118999"
        gradientUnits="userSpaceOnUse"
        id="id0">
        <stop
          offset="0"
          id="stop2993"
          stop-color="#a8a89e"
          stop-opacity="1"
        />
        <stop
          offset="1"
          id="stop2995"
          stop-color="#ffffff"
          stop-opacity="1"
        />
      </linearGradient>
    </defs>
    <linearGradient
      y1="4.9299998"
      href="#id0"
      y2="4.2379999"
      x1="4.6118999"
      x2="4.6118999"
      gradientUnits="userSpaceOnUse"
      id="linearGradient1227"
      gradientTransform="matrix(50.756707,0,0,53.302657,128.15346,24.50087)"
    />
    <linearGradient
      y1="4.9299998"
      href="#id0"
      y2="4.2379999"
      x1="4.6118999"
      x2="4.6118999"
      gradientUnits="userSpaceOnUse"
      id="linearGradient1229"
      gradientTransform="matrix(50.756707,0,0,53.302657,128.15346,24.50087)"
    />
    <linearGradient
      y1="4.9299998"
      href="#id0"
      y2="4.2379999"
      x1="4.6118999"
      x2="4.6118999"
      gradientUnits="userSpaceOnUse"
      id="linearGradient1231"
      gradientTransform="matrix(50.756707,0,0,53.302657,128.15346,24.50087)"
    />
  </defs>
  <g
    id="breadboard">
    <path
      id="rect2763"
      d="M 15.49083,15.49083 C 24.49832,5.4619 37.13446,2.69026 49.81128,0 h 801.29831 c 21.2555,2.98509 25.01866,10.34327 31.99128,16.89909 9.72122,6.19418 15.06566,6.67671 16.89919,26.812762 V 1450.5622 c 3.62545,22.3653 -2.36001,28.7123 -9.8579,32.5387 -11.57232,14.3677 -28.47925,12.7316 -43.45161,16.8991 H 56.03474 C 25.28454,1496.3579 10.64394,1481.3047 6e-5,1450.5622 v 0 L 0,43.711852 C 2.58305,21.40207 9.30117,19.76758 15.49083,15.49083 Z"
      fill="#aa0000"
      stroke-width="0"
    />
    <text
      fill="#ffffff"
      font-family="OCRA"
      id="text3685"
      font-size="48.611"
      y="-447.89447"
      x="1207.7476"
      transform="rotate(90)">VCC</text>
    <rect
      gorn="0.3.0.0.0.0.1.0.0.0.0.0.1.0.0"
      width="555.67938"
      rx="145.09312"
      ry="152.37097"
      x="173.0883"
      height="885.69305"
      y="57.196743"
      id="rect971"
      fill="#e6e6e6"
      stroke-width="48.804"
    />
    <circle
      stroke-width="3.71887"
      cx="454.68668"
      cy="176.53606"
      gorn="0.3.0.0.0.0.1.0.0.0.0.0.1.0.1"
      stroke="none"
      fill="#ffffff"
      id="ellipse973"
      r="59.055153"
    />
    <rect
      gorn="0.3.0.0.0.0.1.0.0.0.0.0.1.1.0"
      width="568.99786"
      x="178.47368"
      height="585.27911"
      y="372.34811"
      id="rect977"
      fill="#c3c3c3"
      stroke-width="48.804"
    />
    <rect
      gorn="0.3.0.0.0.0.1.0.0.0.0.0.1.1.1"
      width="47.173283"
      rx="3.4717591"
      ry="3.6459022"
      x="178.33147"
      height="206.7189"
      y="257.45374"
      id="rect979"
      fill="#c3c3c3"
      stroke-width="48.804"
    />
    <rect
      gorn="0.3.0.0.0.0.1.0.0.0.0.0.1.1.2"
      width="46.599731"
      rx="3.4717591"
      ry="3.6459022"
      x="701.12561"
      height="206.7189"
      y="257.45374"
      id="rect981"
      fill="#c3c3c3"
      stroke-width="48.804"
    />
    <rect
      gorn="0.3.0.0.0.0.1.0.0.0.0.0.1.1.3"
      width="47.173283"
      rx="11.57253"
      ry="12.153006"
      x="178.33147"
      height="194.6629"
      y="846.65692"
      id="rect983"
      fill="#c3c3c3"
      stroke-width="48.804"
    />
    <rect
      gorn="0.3.0.0.0.0.1.0.0.0.0.0.1.1.4"
      width="82.459351"
      rx="11.57253"
      ry="12.153006"
      x="665.00708"
      height="107.90163"
      y="933.41766"
      id="rect985"
      fill="#c3c3c3"
      stroke-width="48.804"
    />
    <rect
      gorn="0.3.0.0.0.0.1.0.0.0.0.0.1.1.5"
      width="495.77576"
      x="215.15092"
      height="687.58295"
      y="307.34076"
      id="rect987"
      fill="#c3c3c3"
      stroke-width="48.804"
    />
    <circle
      stroke-width="3.71887"
      cx="305.85345"
      cy="1050.0863"
      gorn="0.3.0.0.0.0.1.0.0.0.0.0.1.0.1"
      stroke="none"
      fill="#999999"
      id="circle3311"
      r="27.559071"
    />
    <circle
      stroke-width="3.71887"
      cx="408.23001"
      cy="1050.0863"
      gorn="0.3.0.0.0.0.1.0.0.0.0.0.1.0.1"
      stroke="none"
      fill="#999999"
      id="circle3331"
      r="27.559071"
    />
    <circle
      stroke-width="3.71887"
      cx="502.71817"
      cy="1050.0863"
      gorn="0.3.0.0.0.0.1.0.0.0.0.0.1.0.1"
      stroke="none"
      fill="#999999"
      id="circle3333"
      r="27.559071"
    />
    <circle
      stroke-width="3.71887"
      cx="601.14343"
      cy="1050.0863"
      gorn="0.3.0.0.0.0.1.0.0.0.0.0.1.0.1"
      stroke="none"
      fill="#999999"
      id="circle3335"
      r="27.559071"
    />
    <rect
      gorn="0.3.0.0.0.0.1.0.0.0.0.0.1.1.6"
      width="524.57568"
      x="197.75615"
      height="785.02026"
      y="256.29816"
      id="rect989"
      fill="#c3c3c3"
      stroke-width="48.804"
    />
    <rect
      gorn="0.3.0.0.0.0.1.0.0.0.0.0.1.3.0.0"
      width="128.55151"
      x="602.28699"
      height="50.093838"
      y="390.84729"
      id="rect1003"
      fill="#cbcbcb"
      stroke-width="48.804"
    />
    <rect
      gorn="0.3.0.0.0.0.1.0.0.0.0.0.1.3.0.1"
      width="128.55151"
      x="602.28699"
      height="50.093838"
      y="492.12238"
      id="rect1005"
      fill="#cbcbcb"
      stroke-width="48.804"
    />
    <rect
      gorn="0.3.0.0.0.0.1.0.0.0.0.0.1.3.0.2"
      width="128.48553"
      x="602.35303"
      height="50.093838"
      y="593.39471"
      id="rect1007"
      fill="#cbcbcb"
      stroke-width="48.804"
    />
    <rect
      gorn="0.3.0.0.0.0.1.0.0.0.0.0.1.3.0.3"
      width="128.54643"
      x="602.29211"
      height="50.093838"
      y="694.66974"
      id="rect1009"
      fill="#cbcbcb"
      stroke-width="48.804"
    />
    <rect
      gorn="0.3.0.0.0.0.1.0.0.0.0.0.1.3.0.4"
      width="128.55151"
      x="602.28699"
      height="50.093838"
      y="795.94489"
      id="rect1011"
      fill="#cbcbcb"
      stroke-width="48.804"
    />
    <rect
      gorn="0.3.0.0.0.0.1.0.0.0.0.0.1.3.1.0"
      width="35.732723"
      x="172.06816"
      height="50.093838"
      y="390.84729"
      id="rect1015"
      fill="#cbcbcb"
      stroke-width="48.804"
    />
    <rect
      gorn="0.3.0.0.0.0.1.0.0.0.0.0.1.3.1.1"
      width="35.732723"
      x="172.06816"
      height="50.093838"
      y="492.12238"
      id="rect1017"
      fill="#cbcbcb"
      stroke-width="48.804"
    />
    <rect
      gorn="0.3.0.0.0.0.1.0.0.0.0.0.1.3.1.2"
      width="35.732723"
      x="172.06816"
      height="50.093838"
      y="593.39471"
      id="rect1019"
      fill="#cbcbcb"
      stroke-width="48.804"
    />
    <rect
      gorn="0.3.0.0.0.0.1.0.0.0.0.0.1.3.1.3"
      width="35.732723"
      x="172.06816"
      height="50.093838"
      y="694.66974"
      id="rect1021"
      fill="#cbcbcb"
      stroke-width="48.804"
    />
    <rect
      gorn="0.3.0.0.0.0.1.0.0.0.0.0.1.3.1.4"
      width="35.732723"
      x="172.06816"
      height="50.093838"
      y="795.94489"
      id="rect1023"
      fill="#cbcbcb"
      stroke-width="48.804"
    />
    <rect
      gorn="0.3.0.0.0.0.1.0.0.0.0.0.1.4.0.0"
      width="47.701157"
      x="338.43851"
      height="50.095013"
      y="390.83557"
      id="rect1029"
      fill="#1e1e1e"
      stroke-width="48.804"
    />
    <rect
      gorn="0.3.0.0.0.0.1.0.0.0.0.0.1.4.0.1"
      width="47.701157"
      x="429.80057"
      height="50.095013"
      y="390.83557"
      id="rect1031"
      fill="#1e1e1e"
      stroke-width="48.804"
    />
    <rect
      gorn="0.3.0.0.0.0.1.0.0.0.0.0.1.4.0.2"
      width="47.701157"
      x="516.08691"
      height="50.095013"
      y="390.83557"
      id="rect1033"
      fill="#1e1e1e"
      stroke-width="48.804"
    />
    <path
      gorn="0.3.0.0.0.0.1.0.0.0.0.0.1.4.0.3"
      d="m 602.37334,390.83401 h 80.3377 c 10.5117,0 19.0998,4.47208 19.0998,9.94627 v 30.20129 c 0,5.47418 -8.5881,9.9516 -19.0998,9.9516 h -80.3377 z"
      id="path1035"
      fill="#1e1e1e"
      stroke-width="48.804"
    />
    <rect
      gorn="0.3.0.0.0.0.1.0.0.0.0.0.1.4.0.4"
      width="86.961464"
      x="207.81609"
      height="50.095013"
      y="390.83557"
      id="rect1037"
      fill="#1e1e1e"
      stroke-width="48.804"
    />
    <rect
      gorn="0.3.0.0.0.0.1.0.0.0.0.0.1.4.1.0"
      width="47.701157"
      x="338.43851"
      height="50.095013"
      y="492.1106"
      id="rect1041"
      fill="#1e1e1e"
      stroke-width="48.804"
    />
    <rect
      gorn="0.3.0.0.0.0.1.0.0.0.0.0.1.4.1.1"
      width="47.701157"
      x="429.80057"
      height="50.095013"
      y="492.1106"
      id="rect1043"
      fill="#1e1e1e"
      stroke-width="48.804"
    />
    <rect
      gorn="0.3.0.0.0.0.1.0.0.0.0.0.1.4.1.2"
      width="47.701157"
      x="516.08691"
      height="50.095013"
      y="492.1106"
      id="rect1045"
      fill="#1e1e1e"
      stroke-width="48.804"
    />
    <path
      gorn="0.3.0.0.0.0.1.0.0.0.0.0.1.4.1.3"
      d="m 602.37334,492.10907 h 80.3377 c 10.5117,0 19.0998,4.47209 19.0998,9.94623 v 30.2013 c 0,5.4742 -8.5881,9.9516 -19.0998,9.9516 h -80.3377 z"
      id="path1047"
      fill="#1e1e1e"
      stroke-width="48.804"
    />
    <rect
      gorn="0.3.0.0.0.0.1.0.0.0.0.0.1.4.1.4"
      width="86.961464"
      x="207.81609"
      height="50.095013"
      y="492.1106"
      id="rect1049"
      fill="#1e1e1e"
      stroke-width="48.804"
    />
    <rect
      gorn="0.3.0.0.0.0.1.0.0.0.0.0.1.4.2.0"
      width="47.701157"
      x="338.43851"
      height="50.095013"
      y="593.38409"
      id="rect1053"
      fill="#1e1e1e"
      stroke-width="48.804"
    />
    <rect
      gorn="0.3.0.0.0.0.1.0.0.0.0.0.1.4.2.1"
      width="47.701157"
      x="429.80057"
      height="50.095013"
      y="593.38409"
      id="rect1055"
      fill="#1e1e1e"
      stroke-width="48.804"
    />
    <rect
      gorn="0.3.0.0.0.0.1.0.0.0.0.0.1.4.2.2"
      width="47.701157"
      x="516.08691"
      height="50.095013"
      y="593.38409"
      id="rect1057"
      fill="#1e1e1e"
      stroke-width="48.804"
    />
    <path
      gorn="0.3.0.0.0.0.1.0.0.0.0.0.1.4.2.3"
      d="m 602.37334,593.3841 h 80.3377 c 10.5117,0 19.0998,4.4721 19.0998,9.9463 v 30.2013 c 0,5.4741 -8.5881,9.9516 -19.0998,9.9516 h -80.3377 z"
      id="path1059"
      fill="#1e1e1e"
      stroke-width="48.804"
    />
    <rect
      gorn="0.3.0.0.0.0.1.0.0.0.0.0.1.4.2.4"
      width="86.961464"
      x="207.81609"
      height="50.095013"
      y="593.38409"
      id="rect1061"
      fill="#1e1e1e"
      stroke-width="48.804"
    />
    <rect
      gorn="0.3.0.0.0.0.1.0.0.0.0.0.1.4.3.0"
      width="47.701157"
      x="338.43851"
      height="50.095013"
      y="694.65912"
      id="rect1065"
      fill="#1e1e1e"
      stroke-width="48.804"
    />
    <rect
      gorn="0.3.0.0.0.0.1.0.0.0.0.0.1.4.3.1"
      width="47.701157"
      x="429.80057"
      height="50.095013"
      y="694.65912"
      id="rect1067"
      fill="#1e1e1e"
      stroke-width="48.804"
    />
    <rect
      gorn="0.3.0.0.0.0.1.0.0.0.0.0.1.4.3.2"
      width="47.701157"
      x="516.08691"
      height="50.095013"
      y="694.65912"
      id="rect1069"
      fill="#1e1e1e"
      stroke-width="48.804"
    />
    <path
      gorn="0.3.0.0.0.0.1.0.0.0.0.0.1.4.3.3"
      d="m 602.37334,694.6591 h 80.3377 c 10.5117,0 19.0998,4.4721 19.0998,9.9464 v 30.2012 c 0,5.4742 -8.5881,9.9516 -19.0998,9.9516 h -80.3377 z"
      id="path1071"
      fill="#1e1e1e"
      stroke-width="48.804"
    />
    <rect
      gorn="0.3.0.0.0.0.1.0.0.0.0.0.1.4.3.4"
      width="86.961464"
      x="207.81609"
      height="50.095013"
      y="694.65912"
      id="rect1073"
      fill="#1e1e1e"
      stroke-width="48.804"
    />
    <rect
      gorn="0.3.0.0.0.0.1.0.0.0.0.0.1.4.4.0"
      width="47.701157"
      x="338.43851"
      height="50.095013"
      y="795.93414"
      id="rect1077"
      fill="#1e1e1e"
      stroke-width="48.804"
    />
    <rect
      gorn="0.3.0.0.0.0.1.0.0.0.0.0.1.4.4.1"
      width="47.701157"
      x="429.80057"
      height="50.095013"
      y="795.93414"
      id="rect1079"
      fill="#1e1e1e"
      stroke-width="48.804"
    />
    <rect
      gorn="0.3.0.0.0.0.1.0.0.0.0.0.1.4.4.2"
      width="47.701157"
      x="516.08691"
      height="50.095013"
      y="795.93414"
      id="rect1081"
      fill="#1e1e1e"
      stroke-width="48.804"
    />
    <path
      gorn="0.3.0.0.0.0.1.0.0.0.0.0.1.4.4.3"
      d="m 602.37334,795.9342 h 80.3377 c 10.5117,0 19.0998,4.4721 19.0998,9.9463 v 30.2013 c 0,5.4741 -8.5881,9.9516 -19.0998,9.9516 h -80.3377 z"
      id="path1083"
      fill="#1e1e1e"
      stroke-width="48.804"
    />
    <rect
      gorn="0.3.0.0.0.0.1.0.0.0.0.0.1.4.4.4"
      width="86.961464"
      x="207.81609"
      height="50.095013"
      y="795.93414"
      id="rect1085"
      fill="#1e1e1e"
      stroke-width="48.804"
    />
    <rect
      gorn="0.3.0.0.0.0.1.0.0.0.0.0.1.5.0.0.0.0"
      width="43.645695"
      x="294.79791"
      height="745.30975"
      y="250.40552"
      id="rect1091"
      fill="#f0f0f0"
      stroke-width="48.804"
    />
    <rect
      gorn="0.3.0.0.0.0.1.0.0.0.0.0.1.5.0.0.0.1"
      width="43.386833"
      rx="2.9844942"
      ry="3.1341963"
      x="295.01361"
      height="39.925716"
      y="235.38751"
      id="rect1093"
      fill="#f0f0f0"
      stroke-width="48.804"
    />
    <rect
      gorn="0.3.0.0.0.0.1.0.0.0.0.0.1.5.0.0.1.0"
      width="43.645695"
      x="386.15991"
      height="745.30975"
      y="250.40552"
      id="rect1097"
      fill="#f0f0f0"
      stroke-width="48.804"
    />
    <rect
      gorn="0.3.0.0.0.0.1.0.0.0.0.0.1.5.0.0.1.1"
      width="43.386833"
      rx="2.9844942"
      ry="3.1341963"
      x="386.37564"
      height="39.925716"
      y="235.38751"
      id="rect1099"
      fill="#f0f0f0"
      stroke-width="48.804"
    />
    <rect
      gorn="0.3.0.0.0.0.1.0.0.0.0.0.1.5.0.0.2.0"
      width="43.645695"
      x="477.522"
      height="745.30975"
      y="250.40552"
      id="rect1103"
      fill="#f0f0f0"
      stroke-width="48.804"
    />
    <rect
      gorn="0.3.0.0.0.0.1.0.0.0.0.0.1.5.0.0.2.1"
      width="43.386833"
      rx="2.9844942"
      ry="3.1341963"
      x="477.7377"
      height="39.925716"
      y="235.38751"
      id="rect1105"
      fill="#f0f0f0"
      stroke-width="48.804"
    />
    <rect
      gorn="0.3.0.0.0.0.1.0.0.0.0.0.1.5.0.0.3.0"
      width="43.645695"
      x="563.80835"
      height="745.30975"
      y="250.40552"
      id="rect1109"
      fill="#f0f0f0"
      stroke-width="48.804"
    />
    <rect
      gorn="0.3.0.0.0.0.1.0.0.0.0.0.1.5.0.0.3.1"
      width="43.386833"
      rx="2.9844942"
      ry="3.1341963"
      x="564.02405"
      height="39.925716"
      y="235.38751"
      id="rect1111"
      fill="#f0f0f0"
      stroke-width="48.804"
    />
    <rect
      gorn="0.3.0.0.0.0.1.0.0.0.0.0.1.5.0.1.0.0"
      width="549.95905"
      x="178.54472"
      height="66.916153"
      y="323.76331"
      id="rect1117"
      fill="#f0f0f0"
      stroke-width="48.804"
    />
    <rect
      gorn="0.3.0.0.0.0.1.0.0.0.0.0.1.5.0.1.0.1"
      width="61.166908"
      rx="4.5884066"
      ry="4.8185606"
      x="161.95744"
      height="66.910828"
      y="323.91785"
      id="rect1119"
      fill="#f0f0f0"
      stroke-width="48.804"
    />
    <rect
      gorn="0.3.0.0.0.0.1.0.0.0.0.0.1.5.0.1.0.2"
      width="63.755505"
      rx="4.5884066"
      ry="4.8185606"
      x="674.6001"
      height="66.910828"
      y="323.91785"
      id="rect1121"
      fill="#f0f0f0"
      stroke-width="48.804"
    />
    <rect
      gorn="0.3.0.0.0.0.1.0.0.0.0.0.1.5.0.1.1.0"
      width="549.95905"
      x="178.54472"
      height="50.147247"
      y="441.75934"
      id="rect1125"
      fill="#f0f0f0"
      stroke-width="48.804"
    />
    <rect
      gorn="0.3.0.0.0.0.1.0.0.0.0.0.1.5.0.1.1.1"
      width="61.166908"
      rx="4.5884066"
      ry="4.8185606"
      x="161.95744"
      height="50.14325"
      y="441.875"
      id="rect1127"
      fill="#f0f0f0"
      stroke-width="48.804"
    />
    <rect
      gorn="0.3.0.0.0.0.1.0.0.0.0.0.1.5.0.1.1.2"
      width="63.755505"
      rx="4.5884066"
      ry="4.8185606"
      x="674.6001"
      height="50.14325"
      y="441.875"
      id="rect1129"
      fill="#f0f0f0"
      stroke-width="48.804"
    />
    <rect
      gorn="0.3.0.0.0.0.1.0.0.0.0.0.1.5.0.1.2.0"
      width="549.95905"
      x="178.54472"
      height="50.902439"
      y="542.2774"
      id="rect1133"
      fill="#f0f0f0"
      stroke-width="48.804"
    />
    <rect
      gorn="0.3.0.0.0.0.1.0.0.0.0.0.1.5.0.1.2.1"
      width="61.166908"
      rx="4.5884066"
      ry="4.8185606"
      x="161.95744"
      height="50.898388"
      y="542.39532"
      id="rect1135"
      fill="#f0f0f0"
      stroke-width="48.804"
    />
    <rect
      gorn="0.3.0.0.0.0.1.0.0.0.0.0.1.5.0.1.2.2"
      width="63.755505"
      rx="4.5884066"
      ry="4.8185606"
      x="674.6001"
      height="50.898388"
      y="542.39532"
      id="rect1137"
      fill="#f0f0f0"
      stroke-width="48.804"
    />
    <rect
      gorn="0.3.0.0.0.0.1.0.0.0.0.0.1.5.0.1.3.0"
      width="549.95905"
      x="178.54472"
      height="50.902439"
      y="643.55255"
      id="rect1141"
      fill="#f0f0f0"
      stroke-width="48.804"
    />
    <rect
      gorn="0.3.0.0.0.0.1.0.0.0.0.0.1.5.0.1.3.1"
      width="61.166908"
      rx="4.5884066"
      ry="4.8185606"
      x="161.95744"
      height="50.898388"
      y="643.66986"
      id="rect1143"
      fill="#f0f0f0"
      stroke-width="48.804"
    />
    <rect
      gorn="0.3.0.0.0.0.1.0.0.0.0.0.1.5.0.1.3.2"
      width="63.755505"
      rx="4.5884066"
      ry="4.8185606"
      x="674.6001"
      height="50.898388"
      y="643.66986"
      id="rect1145"
      fill="#f0f0f0"
      stroke-width="48.804"
    />
    <rect
      gorn="0.3.0.0.0.0.1.0.0.0.0.0.1.5.0.1.4.0"
      width="549.95905"
      x="178.54472"
      height="50.902439"
      y="744.82758"
      id="rect1149"
      fill="#f0f0f0"
      stroke-width="48.804"
    />
    <rect
      gorn="0.3.0.0.0.0.1.0.0.0.0.0.1.5.0.1.4.1"
      width="61.166908"
      rx="4.5884066"
      ry="4.8185606"
      x="161.95744"
      height="50.898388"
      y="744.94476"
      id="rect1151"
      fill="#f0f0f0"
      stroke-width="48.804"
    />
    <rect
      gorn="0.3.0.0.0.0.1.0.0.0.0.0.1.5.0.1.4.2"
      width="63.755505"
      rx="4.5884066"
      ry="4.8185606"
      x="674.6001"
      height="50.898388"
      y="744.94476"
      id="rect1153"
      fill="#f0f0f0"
      stroke-width="48.804"
    />
    <rect
      gorn="0.3.0.0.0.0.1.0.0.0.0.0.1.5.1.0.0"
      width="568.99786"
      x="168.32231"
      height="137.66476"
      y="873.30841"
      id="rect1161"
      fill="#f0f0f0"
      stroke-width="48.804"
    />
    <rect
      gorn="0.3.0.0.0.0.1.0.0.0.0.0.1.5.1.0.1"
      width="47.173283"
      rx="3.4717591"
      ry="3.6459022"
      x="168.1801"
      height="48.622681"
      y="846.28387"
      id="rect1163"
      fill="#f0f0f0"
      stroke-width="48.804"
    />
    <rect
      gorn="0.3.0.0.0.0.1.0.0.0.0.0.1.5.1.0.2"
      width="46.599731"
      rx="3.4717591"
      ry="3.6459022"
      x="690.97424"
      height="48.622681"
      y="846.28387"
      id="rect1165"
      fill="#f0f0f0"
      stroke-width="48.804"
    />
    <rect
      gorn="0.3.0.0.0.0.1.0.0.0.0.0.1.5.1.0.3"
      width="47.173283"
      rx="11.57253"
      ry="12.153006"
      x="168.1801"
      height="45.786983"
      y="984.87079"
      id="rect1167"
      fill="#f0f0f0"
      stroke-width="48.804"
    />
    <rect
      gorn="0.3.0.0.0.0.1.0.0.0.0.0.1.5.1.0.4"
      width="46.340874"
      rx="11.57253"
      ry="12.153006"
      x="690.97424"
      height="45.786983"
      y="984.87079"
      id="rect1169"
      fill="#f0f0f0"
      stroke-width="48.804"
    />
    <rect
      gorn="0.3.0.0.0.0.1.0.0.0.0.0.1.5.1.0.5"
      width="495.77576"
      x="204.99956"
      height="161.72664"
      y="858.01581"
      id="rect1171"
      fill="#f0f0f0"
      stroke-width="48.804"
    />
    <rect
      gorn="0.3.0.0.0.0.1.0.0.0.0.0.1.5.1.0.6"
      width="524.57568"
      x="187.60478"
      height="184.64572"
      y="846.01202"
      id="rect1173"
      fill="#f0f0f0"
      stroke-width="48.804"
    />
    <rect
      gorn="0.3.0.0.0.0.1.0.0.0.0.0.1.5.1.1.0"
      width="161.71594"
      rx="22.678095"
      ry="23.815628"
      x="162.21623"
      height="119.0888"
      y="235.26489"
      id="rect1177"
      fill="#f0f0f0"
      stroke-width="48.804"
    />
    <rect
      gorn="0.3.0.0.0.0.1.0.0.0.0.0.1.5.1.1.1"
      width="159.90901"
      rx="22.678095"
      ry="23.815628"
      x="578.18774"
      height="119.0888"
      y="235.26489"
      id="rect1179"
      fill="#f0f0f0"
      stroke-width="48.804"
    />
    <rect
      gorn="0.3.0.0.0.0.1.0.0.0.0.0.1.6.0.0.0"
      width="47.553959"
      x="338.46378"
      height="36.890766"
      y="286.88849"
      id="rect1187"
      fill="#323232"
      stroke-width="48.804"
    />
    <rect
      gorn="0.3.0.0.0.0.1.0.0.0.0.0.1.6.0.0.1"
      width="47.553959"
      x="429.82584"
      height="36.890766"
      y="286.88849"
      id="rect1189"
      fill="#323232"
      stroke-width="48.804"
    />
    <rect
      gorn="0.3.0.0.0.0.1.0.0.0.0.0.1.6.0.0.2"
      width="40.356659"
      x="521.29956"
      height="36.890766"
      y="286.88849"
      id="rect1191"
      fill="#323232"
      stroke-width="48.804"
    />
    <path
      stroke-width="12.2011"
      gorn="0.3.0.0.0.0.1.0.0.0.0.0.1.6.0.1.0"
      d="m 338.44354,303.13514 c 47.691,0 47.691,0 47.691,0"
      stroke="#78786e"
      fill="none"
      id="path1195"
    />
    <path
      stroke-width="3.71887"
      gorn="0.3.0.0.0.0.1.0.0.0.0.0.1.6.0.1.1"
      d="m 429.81574,300.81649 c 14.9377,-0.0961 23.14,7.55831 24.0892,22.84018"
      stroke="#78786e"
      fill="none"
      id="path1197"
    />
    <rect
      gorn="0.3.0.0.0.0.1.0.0.0.0.0.1.6.1.0"
      width="47.553959"
      x="338.46378"
      height="36.890766"
      y="250.39752"
      id="rect1203"
      fill="url(#linearGradient1227)"
      stroke-width="48.804"
    />
    <rect
      gorn="0.3.0.0.0.0.1.0.0.0.0.0.1.6.1.1"
      width="47.553959"
      x="429.82584"
      height="36.890766"
      y="250.39752"
      id="rect1205"
      fill="url(#linearGradient1229)"
      stroke-width="48.804"
    />
    <rect
      gorn="0.3.0.0.0.0.1.0.0.0.0.0.1.6.1.2"
      width="40.356659"
      x="521.29956"
      height="36.890766"
      y="250.39752"
      id="rect1207"
      fill="url(#linearGradient1231)"
      stroke-width="48.804"
    />
    <rect
      stroke-width="18.3445"
      fill-opacity="1"
      gorn="0.3.0.0.0.0.9"
      width="80"
      ry="17.881243"
      fill="#501616"
      x="347.35114"
      height="80"
      y="1395.3171"
      id="rect1024"
    />
    <rect
      stroke-width="18.3445"
      fill-opacity="1"
      gorn="0.3.0.0.0.0.12"
      width="25"
      fill="#8c8c8c"
      x="-397.2887"
      height="293.21912"
      y="1435.7363"
      id="connector6pin"
      transform="scale(-1,1)"
    />
    <rect
      stroke-width="18.3445"
      fill-opacity="1"
      gorn="0.3.0.0.0.0.9"
      width="80"
      ry="17.881243"
      fill="#501616"
      x="447.28033"
      height="80"
      y="1395.3171"
      id="rect3597"
    />
    <rect
      stroke-width="18.3445"
      fill-opacity="1"
      gorn="0.3.0.0.0.0.9"
      width="80"
      ry="17.881243"
      fill="#501616"
      x="547.28033"
      height="80"
      y="1395.3171"
      id="rect3759"
    />
    <rect
      stroke-width="18.3445"
      fill-opacity="1"
      gorn="0.3.0.0.0.0.12"
      width="25"
      fill="#8c8c8c"
      x="471.85617"
      height="293.21912"
      y="1435.7363"
      id="rect3761"
    />
    <rect
      stroke-width="18.3445"
      fill-opacity="1"
      gorn="0.3.0.0.0.0.12"
      width="25"
      fill="#8c8c8c"
      x="571.85614"
      height="293.21912"
      y="1435.7363"
      id="rect3763"
    />
    <text
      fill="#ffffff"
      font-family="OCRA"
      id="text3765"
      font-size="48.611"
      y="-352.70029"
      x="1210.5641"
      transform="rotate(90)">GND</text>
    <text
      fill="#ffffff"
      font-family="OCRA"
      id="text3767"
      font-size="48.611"
      y="-557.71881"
      x="1205.8911"
      transform="rotate(90)">DAT</text>
    <text
      fill="#999999"
      font-family="OCRA"
      id="text3849"
      font-size="48.611"
      y="927.66534"
      x="227.83122">AOSONG AM2302</text>
    <text
      fill="#ffffff"
      font-family="OCRA"
      id="text681"
      font-size="65"
      y="-73.042503"
      x="137.64005"
      transform="rotate(90)">AM2302 DHT22 Sensor</text>
    <rect
      height="37.236099"
      width="110.639"
      x="1122.7277"
      id="rect3806"
      y="-221.58363"
      transform="rotate(90)"
      fill="#4d4d4d"
    />
    <rect
      height="0.63888901"
      width="110.639"
      enable-background="new    "
      x="1122.7277"
      id="rect3808"
      y="-221.58363"
      transform="rotate(90)"
      opacity="0.2"
      fill="#ffffff"
    />
    <rect
      height="11.0972"
      width="110.639"
      y="-193.38924"
      x="1122.7277"
      id="rect3810"
      transform="rotate(90)"
      fill="#333333"
    />
    <rect
      height="0.444444"
      width="110.639"
      y="-182.66693"
      enable-background="new    "
      x="1122.7277"
      id="rect3812"
      transform="rotate(90)"
      opacity="0.2"
    />
    <path
      d="m 221.58363,1217.2972 v 0 0 -1.2917 0 c -3.48611,-1.1111 -11.0556,-1.875 -14.9306,-1.875 -4.04167,0 -9.625,0.6667 -13.2639,1.875 v 0 0 l 1e-4,16.9861 h 28.1944 z"
      id="path3814"
      fill="#dcdcdc"
    />
    <path
      d="m 220.13919,1140.0194 h 1.44444 v -16.9723 h -28.1944 v 16.9861 c 3.6527,1.2223 9.1527,2.6806 13.25,2.6806 4.8055,0 9.3194,-1.0416 13.49996,-2.6944 z"
      id="path3816"
      fill="#dcdcdc"
    />
    <path
      d="m 191.91693,1233.0886 v -16.9859 l 1.4723,-0.097 v 16.9861 z"
      id="path3818"
      fill="#999999"
    />
    <path
      d="m 191.88923,1123.1305 v 16.9861 l 1.5,-0.097 v -16.9723 l -1.5,0.083 z"
      id="path3820"
      fill="#999999"
    />
    <rect
      height="0.63888901"
      width="16.986099"
      y="-182.86143"
      enable-background="new    "
      x="1123.0471"
      id="rect3822"
      transform="rotate(90)"
      opacity="0.15"
    />
    <rect
      height="0.63888901"
      width="16.986099"
      enable-background="new    "
      x="1123.0471"
      id="rect3824"
      y="-221.58363"
      transform="rotate(90)"
      opacity="0.5"
      fill="#ffffff"
    />
    <rect
      height="0.63888901"
      width="17"
      y="-182.86143"
      enable-background="new    "
      x="1216.0194"
      id="rect3826"
      transform="rotate(90)"
      opacity="0.15"
    />
    <rect
      height="0.63888901"
      width="17"
      enable-background="new    "
      x="1216.0194"
      id="rect3828"
      y="-221.58363"
      transform="rotate(90)"
      opacity="0.5"
      fill="#ffffff"
    />
    <line
      x1="182.22253"
      y2="1133.311"
      y1="1133.311"
      x2="182.22253"
      id="line3830"
      fill="none"
    />
    <rect
      height="9.6111097"
      width="1.63889"
      y="-191.91693"
      x="1231.7136"
      id="rect3832"
      transform="rotate(90)"
      fill="#999999"
    />
    <rect
      height="9.6111097"
      width="1.6527801"
      y="-191.91693"
      x="1123.0471"
      id="rect3834"
      transform="rotate(90)"
      fill="#999999"
    />
    <rect
      height="37.236099"
      width="110.639"
      x="1125.5442"
      id="rect736"
      y="-141.31297"
      transform="rotate(90)"
      fill="#4d4d4d"
    />
    <rect
      height="0.63888901"
      width="110.639"
      enable-background="new    "
      x="1125.5442"
      id="rect738"
      y="-141.31297"
      transform="rotate(90)"
      opacity="0.2"
      fill="#ffffff"
    />
    <rect
      height="11.0972"
      width="110.639"
      y="-113.11857"
      x="1125.5442"
      id="rect740"
      transform="rotate(90)"
      fill="#333333"
    />
    <rect
      height="0.444444"
      width="110.639"
      y="-102.39626"
      enable-background="new    "
      x="1125.5442"
      id="rect742"
      transform="rotate(90)"
      opacity="0.2"
    />
    <path
      d="m 141.31297,1220.1137 v 0 0 -1.2917 0 c -3.48611,-1.1111 -11.0556,-1.875 -14.9306,-1.875 -4.04167,0 -9.625,0.6667 -13.2639,1.875 v 0 0 l 1e-4,16.9861 h 28.1944 z"
      id="path744"
      fill="#dcdcdc"
    />
    <path
      d="m 139.86853,1142.8359 h 1.44444 v -16.9722 h -28.1944 v 16.9861 c 3.6527,1.2222 9.1527,2.6805 13.25,2.6805 4.8055,0 9.3194,-1.0416 13.49996,-2.6944 z"
      id="path746"
      fill="#dcdcdc"
    />
    <path
      d="m 111.64627,1235.9051 v -16.9859 l 1.4723,-0.097 v 16.9861 z"
      id="path748"
      fill="#999999"
    />
    <path
      d="m 111.61857,1125.947 v 16.9861 l 1.5,-0.097 v -16.9722 l -1.5,0.083 z"
      id="path750"
      fill="#999999"
    />
    <rect
      height="0.63888901"
      width="16.986099"
      y="-102.59077"
      enable-background="new    "
      x="1125.8636"
      id="rect752"
      transform="rotate(90)"
      opacity="0.15"
    />
    <rect
      height="0.63888901"
      width="16.986099"
      enable-background="new    "
      x="1125.8636"
      id="rect754"
      y="-141.31297"
      transform="rotate(90)"
      opacity="0.5"
      fill="#ffffff"
    />
    <rect
      height="0.63888901"
      width="17"
      y="-102.59077"
      enable-background="new    "
      x="1218.8359"
      id="rect756"
      transform="rotate(90)"
      opacity="0.15"
    />
    <rect
      height="0.63888901"
      width="17"
      enable-background="new    "
      x="1218.8359"
      id="rect758"
      y="-141.31297"
      transform="rotate(90)"
      opacity="0.5"
      fill="#ffffff"
    />
    <line
      x1="101.95187"
      y2="1136.1276"
      y1="1136.1276"
      x2="101.95187"
      id="line760"
      fill="none"
    />
    <rect
      height="9.6111097"
      width="1.63889"
      y="-111.64626"
      x="1234.5302"
      id="rect762"
      transform="rotate(90)"
      fill="#999999"
    />
    <rect
      height="9.6111097"
      width="1.6527801"
      y="-111.64626"
      x="1125.8636"
      id="rect764"
      transform="rotate(90)"
      fill="#999999"
    />
    <circle
      id="path790"
      cx="124.43776"
      cy="1411.8179"
      r="40"
      fill="#ffffff"
      stroke="#999999"
      stroke-width="20"
    />
    <circle
      id="circle872"
      cx="813.41412"
      cy="1411.8179"
      r="40"
      fill="#ffffff"
      stroke="#999999"
      stroke-width="20"
    />
    <rect
      id="connector0pin"
      width="25"
      height="25"
      x="372.71283"
      y="1714.7363"
      fill="none"
      stroke="none"
      stroke-width="0"
    />
    <rect
      id="connector1pin"
      width="25"
      height="25"
      x="472.71283"
      y="1714.7363"
      fill="none"
      stroke="none"
      stroke-width="0"
    />
    <rect
      id="connector2pin"
      width="25"
      height="25"
      x="572.71283"
      y="1714.7363"
      fill="none"
      stroke="none"
      stroke-width="0"
    />
  </g>
</svg>
