<?xml version='1.0' encoding='UTF-8' standalone='no'?>
<svg xmlns="http://www.w3.org/2000/svg"  viewBox="0 0 53.150391 118.4822" height="33.438309mm" width="15.000221mm" gorn="0" version="1.1" id="svg2">
    <desc  id="desc3">
        <referenceFile >keyes_ky-005_infrared_transmitter_breakout_3_300mil_breadboard.svg</referenceFile>
    </desc>
    <defs  id="defs4"/>
    <metadata  id="metadata7">
        <rdf:RDF xmlns:rdf="http://www.w3.org/1999/02/22-rdf-syntax-ns#">
            <cc:Work rdf:about="" xmlns:cc="http://creativecommons.org/ns#" xmlns:rdf="http://www.w3.org/1999/02/22-rdf-syntax-ns#">
                <dc:format xmlns:dc="http://purl.org/dc/elements/1.1/">image/svg+xml</dc:format>
                <dc:type xmlns:dc="http://purl.org/dc/elements/1.1/" xmlns:rdf="http://www.w3.org/1999/02/22-rdf-syntax-ns#" rdf:resource="http://purl.org/dc/dcmitype/StillImage"/>
                <dc:title xmlns:dc="http://purl.org/dc/elements/1.1/"/>
            </cc:Work>
        </rdf:RDF>
    </metadata>
    <g  transform="translate(-97.810549,-205.47915)">
        <g >
            <g >
                <g  style="display:inline" gorn="0.3.0.0.0" id="breadboard">
                    <path stroke-opacity="1"  d="m 97.810547,238.61743 0,65.55078 53.150393,0 0,-65.55078 -53.150393,0 z m 13.033203,1.67578 a 1.859375,1.859375 0 0 1 1.85938,1.85938 1.859375,1.859375 0 0 1 -1.85938,1.85937 1.859375,1.859375 0 0 1 -1.85937,-1.85937 1.859375,1.859375 0 0 1 1.85937,-1.85938 z m 27.02148,0 a 1.859375,1.859375 0 0 1 1.85938,1.85938 1.859375,1.859375 0 0 1 -1.85938,1.85937 1.859375,1.859375 0 0 1 -1.85937,-1.85937 1.859375,1.859375 0 0 1 1.85937,-1.85938 z m -33.71484,11.60352 a 3.7980182,3.7980182 0 0 1 3.79883,3.79883 3.7980182,3.7980182 0 0 1 -3.79883,3.79883 3.7980182,3.7980182 0 0 1 -3.79687,-3.79883 3.7980182,3.7980182 0 0 1 3.79687,-3.79883 z m 40.4707,0 a 3.7980182,3.7980182 0 0 1 3.79688,3.79883 3.7980182,3.7980182 0 0 1 -3.79688,3.79883 3.7980182,3.7980182 0 0 1 -3.79882,-3.79883 3.7980182,3.7980182 0 0 1 3.79882,-3.79883 z m -28.22265,1.08789 a 1.859375,1.859375 0 0 1 1.85937,1.85938 1.859375,1.859375 0 0 1 -1.85937,1.85937 1.859375,1.859375 0 0 1 -1.85938,-1.85937 1.859375,1.859375 0 0 1 1.85938,-1.85938 z m 15.91015,0 a 1.859375,1.859375 0 0 1 1.85938,1.85938 1.859375,1.859375 0 0 1 -1.85938,1.85937 1.859375,1.859375 0 0 1 -1.85937,-1.85937 1.859375,1.859375 0 0 1 1.85937,-1.85938 z m -22.0957,10.18164 a 3.7980182,3.7980182 0 0 1 3.79688,3.79883 3.7980182,3.7980182 0 0 1 -3.79688,3.79883 3.7980182,3.7980182 0 0 1 -3.79883,-3.79883 3.7980182,3.7980182 0 0 1 3.79883,-3.79883 z m 28.41016,0 a 3.7980182,3.7980182 0 0 1 3.79687,3.79883 3.7980182,3.7980182 0 0 1 -3.79687,3.79883 3.7980182,3.7980182 0 0 1 -3.79883,-3.79883 3.7980182,3.7980182 0 0 1 3.79883,-3.79883 z m -20.71289,1.93945 a 1.859375,1.859375 0 0 1 1.85937,1.85938 1.859375,1.859375 0 0 1 -1.85937,1.85937 1.859375,1.859375 0 0 1 -1.85938,-1.85937 1.859375,1.859375 0 0 1 1.85938,-1.85938 z m 12.95507,0 a 1.859375,1.859375 0 0 1 1.85938,1.85938 1.859375,1.859375 0 0 1 -1.85938,1.85937 1.859375,1.859375 0 0 1 -1.85937,-1.85937 1.859375,1.859375 0 0 1 1.85937,-1.85938 z m -14.71874,11.30079 a 1.859375,1.859375 0 0 1 1.85937,1.85937 1.859375,1.859375 0 0 1 -1.85937,1.85938 1.859375,1.859375 0 0 1 -1.85938,-1.85938 1.859375,1.859375 0 0 1 1.85938,-1.85937 z m 16.41601,0 a 1.859375,1.859375 0 0 1 1.85937,1.85937 1.859375,1.859375 0 0 1 -1.85937,1.85938 1.859375,1.859375 0 0 1 -1.85938,-1.85938 1.859375,1.859375 0 0 1 1.85938,-1.85937 z m -21.9707,9.15429 a 1.859375,1.859375 0 0 1 1.85937,1.85938 1.859375,1.859375 0 0 1 -1.85937,1.85937 1.859375,1.859375 0 0 1 -1.85938,-1.85937 1.859375,1.859375 0 0 1 1.85938,-1.85938 z m 27.65234,0 a 1.859375,1.859375 0 0 1 1.85938,1.85938 1.859375,1.859375 0 0 1 -1.85938,1.85937 1.859375,1.859375 0 0 1 -1.85937,-1.85937 1.859375,1.859375 0 0 1 1.85937,-1.85938 z m -22.70703,9.33203 a 1.90625,1.90625 0 0 1 1.90625,1.90625 1.90625,1.90625 0 0 1 -1.90625,1.90625 1.90625,1.90625 0 0 1 -1.90625,-1.90625 1.90625,1.90625 0 0 1 1.90625,-1.90625 z m 8.57617,0 a 1.90625,1.90625 0 0 1 1.90625,1.90625 1.90625,1.90625 0 0 1 -1.90625,1.90625 1.90625,1.90625 0 0 1 -1.90625,-1.90625 1.90625,1.90625 0 0 1 1.90625,-1.90625 z m 8.76953,0 a 1.90625,1.90625 0 0 1 1.90625,1.90625 1.90625,1.90625 0 0 1 -1.90625,1.90625 1.90625,1.90625 0 0 1 -1.90625,-1.90625 1.90625,1.90625 0 0 1 1.90625,-1.90625 z" style="opacity:1;stroke-miterlimit:4;stroke-dasharray:none;" gorn="0.3.0.0.0.0" stroke-width="1.5" id="rect7440" stroke="none" fill="#2d2d2d" fill-opacity="1"/>
                    <circle stroke-opacity="1" cx="117.91006" r="2.6766746"  style="display:inline;stroke-miterlimit:4;stroke-dasharray:none;" gorn="0.3.0.0.0.1" stroke-width="1.68105149" cy="266.9686" id="path8375-78-6-8-5" stroke="#8c8c8c" fill="none" fill-opacity="0"/>
                    <circle stroke-opacity="1" cx="130.86526" r="2.6766746"  style="display:inline;stroke-miterlimit:4;stroke-dasharray:none;" gorn="0.3.0.0.0.2" stroke-width="1.68105149" cy="266.9686" id="path8375-78-6-8-5-8" stroke="#8c8c8c" fill="none" fill-opacity="0"/>
                    <text stroke-opacity="1"  style="font-style:normal;font-variant:normal;font-weight:normal;font-stretch:normal;line-height:125%;font-family:Droid Sans;-inkscape-font-specification:Droid Sans;letter-spacing:0px;word-spacing:0px;stroke-linecap:butt;stroke-linejoin:miter;" gorn="0.3.0.0.0.3" stroke-width="1" font-size="7.5" x="102.63048" y="299.24469" id="tspan8311" stroke="none" fill="#ffffff" fill-opacity="1">S</text>
                    <text stroke-opacity="1"  style="font-style:normal;font-variant:normal;font-weight:normal;font-stretch:normal;line-height:125%;font-family:Droid Sans;-inkscape-font-specification:Droid Sans;letter-spacing:0px;word-spacing:0px;stroke-linecap:butt;stroke-linejoin:miter;" gorn="0.3.0.0.0.4" stroke-width="1" font-size="medium" x="141.2748" y="299.54599" id="tspan8315" stroke="none" fill="#ffffff" fill-opacity="1">-</text>
                    <text stroke-opacity="1"  style="font-style:normal;font-variant:normal;font-weight:normal;font-stretch:normal;line-height:125%;font-family:Droid Sans;-inkscape-font-specification:Droid Sans;letter-spacing:0px;word-spacing:0px;stroke-linecap:butt;stroke-linejoin:miter;" gorn="0.3.0.0.0.5" stroke-width="1" font-size="8.75" x="121.28143" y="245.7554" id="tspan8323" stroke="none" fill="#ffffff" fill-opacity="1">A</text>
                    <g  transform="scale(-1,-1)">
                        <g >
                            <g >
                                <text stroke-opacity="1"  style="font-style:normal;font-variant:normal;font-weight:normal;font-stretch:normal;line-height:125%;font-family:Droid Sans;-inkscape-font-specification:Droid Sans;letter-spacing:0px;word-spacing:0px;stroke-linecap:butt;stroke-linejoin:miter;" gorn="0.3.0.0.0.6.0.0.0" stroke-width="1" font-size="6.25" x="-126.66064" y="-247.57935" id="tspan8327" stroke="none" fill="#ffffff" fill-opacity="1">S1</text>
                            </g>
                        </g>
                    </g>
                    <g  transform="matrix(0,1,-1,0,0,0)">
                        <g >
                            <g >
                                <text stroke-opacity="1"  style="font-style:normal;font-variant:normal;font-weight:normal;font-stretch:normal;line-height:125%;font-family:Droid Sans;-inkscape-font-specification:Droid Sans;letter-spacing:0px;word-spacing:0px;stroke-linecap:butt;stroke-linejoin:miter;" gorn="0.3.0.0.0.7.0.0.0" stroke-width="1" font-size="6.25" x="284.45398" y="-129.59288" id="tspan8319" stroke="none" fill="#ffffff" fill-opacity="1">R1</text>
                            </g>
                        </g>
                    </g>
                    <circle stroke-opacity="1" cx="115.53799" r="2.3883932"  style="display:inline;" gorn="0.3.0.0.0.8" stroke-width="1" cy="296.80222" id="path8375-78-6-7" stroke="#9a916c" fill="#2e2e2e" fill-opacity="0"/>
                    <circle stroke-opacity="1" cx="124.11331" r="2.3883932"  style="display:inline;" gorn="0.3.0.0.0.9" stroke-width="1" cy="296.80222" id="path8375-3-9-9" stroke="#9a916c" fill="#2e2e2e" fill-opacity="0"/>
                    <path stroke-opacity="1"  d="m 135.27098,296.86918 a 2.388393,2.3883932 0 0 1 -2.38839,2.38839 2.388393,2.3883932 0 0 1 -2.38839,-2.38839 2.388393,2.3883932 0 0 1 2.38839,-2.3884 2.388393,2.3883932 0 0 1 2.38839,2.3884 z m -4.97767,-2.67858 5.17858,0 c 0,0 0,0 0,0 l 0,5.22322 c 0,0 0,0 0,0 l -5.17858,0 c 0,0 0,0 0,0 l 0,-5.22322 c 0,0 0,0 0,0 z" style="display:inline;stroke-miterlimit:4;stroke-dasharray:none;" gorn="0.3.0.0.0.10" stroke-width="1.29999995" id="path8375-3-0-2-4" stroke="#9a916c" fill="#2e2e2e" fill-opacity="0"/>
                    <rect stroke-opacity="1"  height="6.8185296" rx="3.05567e-016" width="13.384521" style="opacity:1;stroke-miterlimit:4;stroke-dasharray:none;" gorn="0.3.0.0.0.11" stroke-width="1.125" x="114.884" y="284.26746" id="rect8138" stroke="#ffffff" fill="none" fill-opacity="1"/>
                    <circle stroke-opacity="1" cx="138.2438" r="2.6766746"  style="display:inline;stroke-miterlimit:4;stroke-dasharray:none;" gorn="0.3.0.0.0.12" stroke-width="1.68105149" cy="287.42419" id="path8375-78-6-8" stroke="#8c8c8c" fill="none" fill-opacity="0"/>
                    <circle stroke-opacity="1" cx="110.59085" r="2.6766746"  style="display:inline;stroke-miterlimit:4;stroke-dasharray:none;" gorn="0.3.0.0.0.13" stroke-width="1.68105149" cy="287.42419" id="path8375-78-6-8-0" stroke="#8c8c8c" fill="none" fill-opacity="0"/>
                    <circle stroke-opacity="1" cx="116.14669" r="2.6766746"  style="display:inline;stroke-miterlimit:4;stroke-dasharray:none;" gorn="0.3.0.0.0.14" stroke-width="1.68105149" cy="278.26965" id="path8375-78-6-8-6" stroke="#8c8c8c" fill="none" fill-opacity="0"/>
                    <circle stroke-opacity="1" cx="132.56168" r="2.6766746"  style="display:inline;stroke-miterlimit:4;stroke-dasharray:none;" gorn="0.3.0.0.0.15" stroke-width="1.68105149" cy="278.26965" id="path8375-78-6-8-9" stroke="#8c8c8c" fill="none" fill-opacity="0"/>
                    <circle stroke-opacity="1" cx="116.39923" r="2.6766746"  style="display:inline;stroke-miterlimit:4;stroke-dasharray:none;" gorn="0.3.0.0.0.16" stroke-width="1.68105149" cy="254.84677" id="path8375-78-6-8-4" stroke="#8c8c8c" fill="none" fill-opacity="0"/>
                    <circle stroke-opacity="1" cx="132.30914" r="2.6766746"  style="display:inline;stroke-miterlimit:4;stroke-dasharray:none;" gorn="0.3.0.0.0.17" stroke-width="1.68105149" cy="254.84677" id="path8375-78-6-8-3" stroke="#8c8c8c" fill="none" fill-opacity="0"/>
                    <circle stroke-opacity="1" cx="110.84339" r="2.6766746"  style="display:inline;stroke-miterlimit:4;stroke-dasharray:none;" gorn="0.3.0.0.0.18" stroke-width="1.68105149" cy="242.15674" id="path8375-78-6-8-4-0" stroke="#8c8c8c" fill="none" fill-opacity="0"/>
                    <circle stroke-opacity="1" cx="137.86497" r="2.6766746"  style="display:inline;stroke-miterlimit:4;stroke-dasharray:none;" gorn="0.3.0.0.0.19" stroke-width="1.68105149" cy="242.15674" id="path8375-78-6-8-4-3" stroke="#8c8c8c" fill="none" fill-opacity="0"/>
                    <circle stroke-opacity="1" cx="144.62036" r="4.3337693"  style="display:inline;stroke-miterlimit:4;stroke-dasharray:none;" gorn="0.3.0.0.0.20" stroke-width="1.08865237" cy="255.69908" id="path8375-78-6-8-4-5" stroke="#8c8c8c" fill="none" fill-opacity="0"/>
                    <circle stroke-opacity="1" cx="104.15113" r="4.3337693"  style="display:inline;stroke-miterlimit:4;stroke-dasharray:none;" gorn="0.3.0.0.0.21" stroke-width="1.08865237" cy="255.69908" id="path8375-78-6-8-4-5-4" stroke="#8c8c8c" fill="none" fill-opacity="0"/>
                    <circle stroke-opacity="1" cx="110.21204" r="4.3337693"  style="display:inline;stroke-miterlimit:4;stroke-dasharray:none;" gorn="0.3.0.0.0.22" stroke-width="1.08865237" cy="266.9686" id="path8375-78-6-8-4-5-7" stroke="#8c8c8c" fill="none" fill-opacity="0"/>
                    <circle stroke-opacity="1" cx="138.6226" r="4.3337693"  style="display:inline;stroke-miterlimit:4;stroke-dasharray:none;" gorn="0.3.0.0.0.23" stroke-width="1.08865237" cy="266.9686" id="path8375-78-6-8-4-5-2" stroke="#8c8c8c" fill="none" fill-opacity="0"/>
                    <rect stroke-opacity="1"  height="4.1407728" width="3.5100591" style="opacity:1;stroke-miterlimit:4;stroke-dasharray:none;" gorn="0.3.0.0.0.24" stroke-width="2.5999999" x="116.65772" y="285.5878" id="rect8342" stroke="none" fill="#8c8c8c" fill-opacity="1"/>
                    <rect stroke-opacity="1"  height="4.1407728" width="3.5100591" style="display:inline;opacity:1;stroke-miterlimit:4;stroke-dasharray:none;" gorn="0.3.0.0.0.25" stroke-width="2.5999999" x="122.90208" y="285.54666" id="rect8342-8" stroke="none" fill="#8c8c8c" fill-opacity="1"/>
                    <g  transform="translate(12.467901,89.006698)">
                        <g >
                            <g >
                                <g  gorn="0.3.0.0.0.26.0.0.0" id="led">
                                    <g  gorn="0.3.0.0.0.26.0.0.0.0" id="g139">
                                        <g  gorn="0.3.0.0.0.26.0.0.0.0.0" id="g141">
                                            <g  gorn="0.3.0.0.0.26.0.0.0.0.0.0" id="g8315">
                                                <circle stroke-opacity="1" cx="105.44589" r="1.84375"  style="opacity:1;stroke-miterlimit:4;stroke-dasharray:none;" gorn="0.3.0.0.0.26.0.0.0.0.0.0.0" stroke-width="1.5" cy="177.96056" id="path8552" stroke="none" fill="#8c8c8c" fill-opacity="1"/>
                                                <circle stroke-opacity="1" cx="118.4011" r="1.84375"  style="opacity:1;stroke-miterlimit:4;stroke-dasharray:none;" gorn="0.3.0.0.0.26.0.0.0.0.0.0.1" stroke-width="1.5" cy="177.96056" id="path8552-9" stroke="none" fill="#8c8c8c" fill-opacity="1"/>
                                                <g  transform="matrix(-0.08654728,0,0,0.08654728,121.21113,117.22178)">
                                                    <g >
                                                        <g >
                                                            <g  gorn="0.3.0.0.0.26.0.0.0.0.0.0.2.0.0.0" id="g146">
                                                                <g  gorn="0.3.0.0.0.26.0.0.0.0.0.0.2.0.0.0.0" id="g148">
                                                                    <g  gorn="0.3.0.0.0.26.0.0.0.0.0.0.2.0.0.0.0.0" id="g150">
                                                                        <g  gorn="0.3.0.0.0.26.0.0.0.0.0.0.2.0.0.0.0.0.0" id="g4697">
                                                                            <rect  height="136.49001" width="29.879999" style="fill:#8c8c8c" gorn="0.3.0.0.0.26.0.0.0.0.0.0.2.0.0.0.0.0.0.0" x="47.93" y="269.16" id="rect11"/>
                                                                            <path  d="m 177.84,405.65 c 0,-16.3 -14.79,-29.2 -29,-41.55 -5.78,-5.1 -16.66,-13.91 -16.66,-19.79 l 0,-75.98 -30.02,0 0,80.28 c 0,14.7 13.16,26.09 27.03,38.17 6.17,5.22 18.73,17.36 18.73,24.58" style="fill:#8c8c8c" gorn="0.3.0.0.0.26.0.0.0.0.0.0.2.0.0.0.0.0.0.1" id="path13"/>
                                                                            <g  transform="matrix(1.0530762,0,0,1.0530762,-5.6969359,-8.6580581)">
                                                                                <g >
                                                                                    <g >
                                                                                        <g  gorn="0.3.0.0.0.26.0.0.0.0.0.0.2.0.0.0.0.0.0.2.0.0.0" id="g155">
                                                                                            <g  gorn="0.3.0.0.0.26.0.0.0.0.0.0.2.0.0.0.0.0.0.2.0.0.0.0" id="g157">
                                                                                                <g  gorn="0.3.0.0.0.26.0.0.0.0.0.0.2.0.0.0.0.0.0.2.0.0.0.0.0" id="g159">
                                                                                                    <g  gorn="0.3.0.0.0.26.0.0.0.0.0.0.2.0.0.0.0.0.0.2.0.0.0.0.0.0" id="g12">
                                                                                                        <path  d="m 196.85,180.57 0,-82.12 C 196.85,44.1 152.85,0 98.44,0 44.1,0 0,44.02 0,98.45 l 0,189.57 c 20.47,22.93 56.9,38.23 98.44,38.23 64.16,0 116.23,-36.36 116.23,-81.38 l 0,-21.16 c -0.01,-15.87 -6.59,-30.61 -17.82,-43.14 z" style="opacity:0.3;fill:#c0c0c0" gorn="0.3.0.0.0.26.0.0.0.0.0.0.2.0.0.0.0.0.0.2.0.0.0.0.0.0.0" id="color_path14"/>
                                                                                                        <path  d="m 196.85,180.57 0,-82.12 C 196.85,44.1 152.85,0 98.44,0 44.1,0 0,44.02 0,98.45 l 0,189.57 c 20.47,22.93 56.9,38.23 98.44,38.23 64.16,0 116.23,-36.36 116.23,-81.38 l 0,-21.16 c -0.01,-15.87 -6.59,-30.61 -17.82,-43.14 z" style="opacity:0.5;fill:#e6e6e6" gorn="0.3.0.0.0.26.0.0.0.0.0.0.2.0.0.0.0.0.0.2.0.0.0.0.0.0.1" id="path16"/>
                                                                                                        <path  d="m 196.85,180.57 0,43.13 c 0,38.04 -43.97,68.96 -98.41,68.96 C 44.1,292.66 0,261.84 0,223.7 L 0,266.83 0,288 c 20.47,22.94 56.9,38.23 98.44,38.23 64.16,0 116.23,-36.36 116.23,-81.37 l 0,-21.16 c -0.01,-15.86 -6.59,-30.6 -17.82,-43.13 z" style="opacity:0.9;fill:#d1d1d1" gorn="0.3.0.0.0.26.0.0.0.0.0.0.2.0.0.0.0.0.0.2.0.0.0.0.0.0.2" id="path18"/>
                                                                                                        <path  d="m 196.85,180.57 0,43.13 c 0,38.04 -43.97,68.96 -98.41,68.96 C 44.1,292.66 0,261.84 0,223.7 L 0,266.83 0,288 c 20.47,22.94 56.9,38.23 98.44,38.23 64.16,0 116.23,-36.36 116.23,-81.37 l 0,-21.16 c -0.01,-15.86 -6.59,-30.6 -17.82,-43.13 z" style="opacity:0.7;fill:#c0c0c0" gorn="0.3.0.0.0.26.0.0.0.0.0.0.2.0.0.0.0.0.0.2.0.0.0.0.0.0.3" id="color_path20"/>
                                                                                                        <path  d="m 196.85,180.57 0,43.13 c 0,38.04 -43.97,68.96 -98.41,68.96 C 44.1,292.66 0,261.84 0,223.7 l 0,43.13 c 20.47,22.92 56.9,38.23 98.44,38.23 64.16,0 116.23,-36.36 116.23,-81.37 -0.01,-15.85 -6.59,-30.59 -17.82,-43.12 z" style="opacity:0.25;fill:#c0c0c0" gorn="0.3.0.0.0.26.0.0.0.0.0.0.2.0.0.0.0.0.0.2.0.0.0.0.0.0.4" id="color_path22"/>
                                                                                                        <ellipse cx="98.440002" ry="68.900002"  rx="98.43" style="opacity:0.25;fill:#e6e6e6" gorn="0.3.0.0.0.26.0.0.0.0.0.0.2.0.0.0.0.0.0.2.0.0.0.0.0.0.5" cy="223.7" id="ellipse24"/>
                                                                                                        <ellipse cx="98.440002" ry="68.900002"  rx="98.43" style="opacity:0.25;fill:#c0c0c0" gorn="0.3.0.0.0.26.0.0.0.0.0.0.2.0.0.0.0.0.0.2.0.0.0.0.0.0.6" cy="223.7" id="color_ellipse26"/>
                                                                                                        <polygon  style="fill:#666666" gorn="0.3.0.0.0.26.0.0.0.0.0.0.2.0.0.0.0.0.0.2.0.0.0.0.0.0.7" points="44.39,223.71 44.39,181.87 83.55,181.87 139.06,122.29 47.32,122.29 30.6,134 30.6,223.71 " id="polygon28"/>
                                                                                                        <polygon  style="fill:#666666" gorn="0.3.0.0.0.26.0.0.0.0.0.0.2.0.0.0.0.0.0.2.0.0.0.0.0.0.8" points="102.94,181.87 153.61,181.87 153.61,223.71 166.3,223.71 166.3,118.39 149.7,118.39 155.76,125.47 " id="polygon30"/>
                                                                                                        <path  d="m 196.85,180.57 0,-82.12 C 196.85,44.1 152.85,0 98.44,0 44.1,0 0,44.02 0,98.45 l 0,189.57 c 20.47,22.93 56.9,38.23 98.44,38.23 64.16,0 116.23,-36.36 116.23,-81.38 l 0,-21.16 c -0.01,-15.87 -6.59,-30.61 -17.82,-43.14 z" style="opacity:0.65;fill:#c0c0c0" gorn="0.3.0.0.0.26.0.0.0.0.0.0.2.0.0.0.0.0.0.2.0.0.0.0.0.0.9" id="color_path32"/>
                                                                                                        <path  d="m 144.28,52.14 19.95,-3.8 C 152.54,32.62 135.31,21.15 115.04,17.25 l 3.53,15.01 c 10.61,3.76 19.54,10.84 25.71,19.88 z" style="opacity:0.5;fill:#ffffff" gorn="0.3.0.0.0.26.0.0.0.0.0.0.2.0.0.0.0.0.0.2.0.0.0.0.0.0.10" id="path34"/>
                                                                                                        <path  d="m 10.67,276.75 0,21.11 c 9.01,7.35 19.91,13.56 32.05,18.29 l 0,-21.18 C 30.52,290.3 19.71,284.11 10.67,276.75 Z" style="opacity:0.5;fill:#ffffff" gorn="0.3.0.0.0.26.0.0.0.0.0.0.2.0.0.0.0.0.0.2.0.0.0.0.0.0.11" id="path36"/>
                                                                                                        <path  d="m 153.79,280.69 c -3.55,1.7 -7.36,3.19 -11.19,4.58 -0.81,0.27 -1.63,0.56 -2.47,0.81 -7.83,2.49 -16.13,4.43 -24.93,5.48 -1.04,0.13 -2.1,0.26 -3.12,0.27 -4.45,0.42 -8.94,0.81 -13.48,0.81 -2.06,0 -4.27,-0.21 -6.55,-0.33 -16.67,-0.79 -32.37,-4.37 -45.8,-10.27 l 0,-116.52 0,-67.02 c 0,-20.43 11.78,-37.91 28.8,-46.52 l -0.31,-0.74 -17.33,-21 C 34.22,44.17 18.66,69.44 18.66,98.46 l 0,165.35 c -0.69,-0.69 -4.28,-4.29 -6.67,-7.36 L 7.72,266 c 19.46,20.58 52.9,34.19 90.87,34.19 23.33,0 44.96,-5.19 62.66,-13.92 l -7.32,-5.68 c -0.14,0.1 -0.14,0.1 -0.14,0.1 z" style="opacity:0.5;fill:#ffffff" gorn="0.3.0.0.0.26.0.0.0.0.0.0.2.0.0.0.0.0.0.2.0.0.0.0.0.0.12" id="path38"/>
                                                                                                    </g>
                                                                                                </g>
                                                                                            </g>
                                                                                        </g>
                                                                                    </g>
                                                                                </g>
                                                                            </g>
                                                                        </g>
                                                                    </g>
                                                                </g>
                                                            </g>
                                                        </g>
                                                    </g>
                                                </g>
                                                <path stroke-opacity="1"  d="m 107.1747,151.74985 -1.73044,26.21302" style="fill-rule:evenodd;stroke-linecap:butt;stroke-linejoin:miter;stroke-miterlimit:4;stroke-dasharray:none;" gorn="0.3.0.0.0.26.0.0.0.0.0.0.3" stroke-width="2.5999999" id="path7511" stroke="#8c8c8c" fill="none"/>
                                                <path stroke-opacity="1"  d="m 115.72529,151.49349 2.75589,26.85393" style="fill-rule:evenodd;stroke-linecap:butt;stroke-linejoin:miter;stroke-miterlimit:4;stroke-dasharray:none;" gorn="0.3.0.0.0.26.0.0.0.0.0.0.4" stroke-width="2.5" id="path7513" stroke="#8c8c8c" fill="none"/>
                                            </g>
                                        </g>
                                    </g>
                                </g>
                            </g>
                        </g>
                    </g>
                    <g  transform="translate(0.7337596,-0.21587)">
                        <g >
                            <g >
                                <g  gorn="0.3.0.0.0.27.0.0.0" id="g8474">
                                    <rect stroke-opacity="1" ry="0"  height="8.7946367" width="17.499998" rx="9.6986098e-016" style="display:inline;" gorn="0.3.0.0.0.27.0.0.0.0" stroke-width="1" x="110.56068" y="292.78632" id="rect8343-9" stroke="#ffffff" fill="#2e2e2e" fill-opacity="0"/>
                                    <rect stroke-opacity="1"  height="8.7900572" width="8.6114864" rx="9.6934482e-016" style="display:inline;" gorn="0.3.0.0.0.27.0.0.0.1" stroke-width="1.00458562" x="127.9684" y="292.7886" id="rect8345-8" stroke="#ffffff" fill="#2e2e2e" fill-opacity="0"/>
                                    <circle stroke-opacity="1" cx="114.90543" r="2.3883932"  style="display:inline;" gorn="0.3.0.0.0.27.0.0.0.2" stroke-width="1" cy="297.01807" id="path8375-78-6" stroke="#8c8c8c" fill="none" fill-opacity="0"/>
                                    <circle stroke-opacity="1" cx="123.48074" r="2.3883932"  style="display:inline;" gorn="0.3.0.0.0.27.0.0.0.3" stroke-width="1" cy="297.01807" id="path8375-3-9" stroke="#8c8c8c" fill="#2e2e2e" fill-opacity="0"/>
                                    <path stroke-opacity="1"  d="m 134.63842,297.08505 a 2.388393,2.3883932 0 0 1 -2.38839,2.38839 2.388393,2.3883932 0 0 1 -2.38839,-2.38839 2.388393,2.3883932 0 0 1 2.38839,-2.3884 2.388393,2.3883932 0 0 1 2.38839,2.3884 z m -4.97767,-2.67858 5.17857,0 c 0,0 0,0 0,0 l 0,5.22322 c 0,0 0,0 0,0 l -5.17857,0 c 0,0 0,0 0,0 l 0,-5.22322 c 0,0 0,0 0,0 z" style="display:inline;stroke-miterlimit:4;stroke-dasharray:none;" gorn="0.3.0.0.0.27.0.0.0.4" stroke-width="1.29999995" id="path8375-3-0-2" stroke="#8c8c8c" fill="#2e2e2e" fill-opacity="0"/>
                                    <g  transform="matrix(1.2440783,0,0,1.2440783,-94.546522,286.88078)">
                                        <g >
                                            <g >
                                                <polygon  style="display:inline;fill:#404040" gorn="0.3.0.0.0.27.0.0.0.5.0.0.0" points="171.949,6.061 170.389,4.526 166.327,4.526 166.327,4.526 164.766,6.061 164.766,10.056 166.327,11.588 170.389,11.588 171.949,10.056 " id="polygon9525"/>
                                            </g>
                                        </g>
                                    </g>
                                    <g  transform="matrix(1.2440783,0,0,1.2440783,-85.610632,286.88078)">
                                        <g >
                                            <g >
                                                <polygon  style="display:inline;fill:#404040" gorn="0.3.0.0.0.27.0.0.0.6.0.0.0" points="166.327,11.588 170.389,11.588 171.949,10.056 171.949,6.061 170.389,4.526 166.327,4.526 166.327,4.526 164.766,6.061 164.766,10.056 " id="polygon9525-7"/>
                                            </g>
                                        </g>
                                    </g>
                                    <g  transform="matrix(1.2440783,0,0,1.2440783,-76.674732,286.88078)">
                                        <g >
                                            <g >
                                                <polygon  style="display:inline;fill:#404040" gorn="0.3.0.0.0.27.0.0.0.7.0.0.0" points="166.327,11.588 170.389,11.588 171.949,10.056 171.949,6.061 170.389,4.526 166.327,4.526 166.327,4.526 164.766,6.061 164.766,10.056 " id="polygon9525-0"/>
                                            </g>
                                        </g>
                                    </g>
                                </g>
                            </g>
                        </g>
                    </g>
                    <rect stroke-opacity="1"  height="26.979361" rx="8.7117614e-016" width="1.5093021" style="display:inline;opacity:1;stroke-miterlimit:4;stroke-dasharray:none;" stroke-width="1.19069779" x="114.76424" y="296.2912" stroke="#8c8c8c" fill="#8c8c8c" fill-opacity="1"/>
                    <rect stroke-opacity="1"  height="26.979361" rx="8.7117614e-016" width="1.5093021" style="display:inline;opacity:1;stroke-miterlimit:4;stroke-dasharray:none;" stroke-width="1.19069779" x="123.80529" y="296.2912" stroke="#8c8c8c" fill="#8c8c8c" fill-opacity="1"/>
                    <rect stroke-opacity="1"  height="26.979361" rx="8.7117614e-016" width="1.5093021" style="display:inline;opacity:1;stroke-miterlimit:4;stroke-dasharray:none;" stroke-width="1.19069779" x="132.8053" y="296.2912" stroke="#8c8c8c" fill="#8c8c8c" fill-opacity="1"/>
                    <g  transform="translate(-16.282232,59.588727)">
                        <g >
                            <g >
                                <g  style="display:inline" gorn="0.3.0.0.0.31.0.0.0" id="connector1pin">
                                    <rect stroke-opacity="1"  height="0.16069429" rx="9.9289509e-016" width="1.6205368" style="opacity:1;stroke-miterlimit:4;stroke-dasharray:none;" gorn="0.3.0.0.0.31.0.0.0.0" stroke-width="1.07946324" x="140.03191" y="236.64685" id="rect8209-0-6" stroke="#c1c1c1" fill="#1a1a1a" fill-opacity="1"/>
                                    <rect stroke-opacity="1"  height="0.077249847" rx="1.1588659e-015" width="1.8914231" style="opacity:1;stroke-miterlimit:4;stroke-dasharray:none;" gorn="0.3.0.0.0.31.0.0.0.1" stroke-width="0.80857694" x="139.90091" y="263.76691" id="rect8209-6-9-1" stroke="#c1c1c1" fill="#1a1a1a" fill-opacity="1"/>
                                </g>
                                <rect  height="0.0562827" width="0.00540889" stroke-width="0" gorn="0.3.0.0.0.31.0.0.1" x="140.842" y="264.22" id="connector1terminal" stroke="none" fill="none"/>
                            </g>
                        </g>
                    </g>
                    <g  transform="translate(-7.2822314,59.588727)">
                        <g >
                            <g >
                                <g  style="display:inline" gorn="0.3.0.0.0.32.0.0.0" id="connector2pin">
                                    <rect stroke-opacity="1"  height="0.16069429" rx="9.9289509e-016" width="1.6205368" style="opacity:1;stroke-miterlimit:4;stroke-dasharray:none;" gorn="0.3.0.0.0.32.0.0.0.0" stroke-width="1.07946324" x="140.03191" y="236.64685" id="rect8209-0-6-7" stroke="#c1c1c1" fill="#1a1a1a" fill-opacity="1"/>
                                    <rect stroke-opacity="1"  height="0.077249847" rx="1.1588659e-015" width="1.8914231" style="opacity:1;stroke-miterlimit:4;stroke-dasharray:none;" gorn="0.3.0.0.0.32.0.0.0.1" stroke-width="0.80857694" x="139.90091" y="263.76691" id="rect8209-6-9-1-7" stroke="#c1c1c1" fill="#1a1a1a" fill-opacity="1"/>
                                </g>
                                <rect  height="0.0562827" width="0.00540889" stroke-width="0" gorn="0.3.0.0.0.32.0.0.1" x="140.842" y="264.22" id="connector2terminal" stroke="none" fill="none"/>
                            </g>
                        </g>
                    </g>
                    <g  transform="translate(-16.565492,59.412337)">
                        <g >
                            <g >
                                <g  style="display:inline" gorn="0.3.0.0.0.33.0.0.0" id="connector0pin">
                                    <rect stroke-opacity="1"  height="0.16069429" rx="9.9289509e-016" width="1.6205368" style="opacity:1;stroke-miterlimit:4;stroke-dasharray:none;" gorn="0.3.0.0.0.33.0.0.0.0" stroke-width="1.07946324" x="131.27411" y="236.82324" id="rect8209" stroke="#c1c1c1" fill="#1a1a1a" fill-opacity="1"/>
                                    <rect stroke-opacity="1"  height="0.077249847" rx="1.1588659e-015" width="1.8914231" style="opacity:1;stroke-miterlimit:4;stroke-dasharray:none;" gorn="0.3.0.0.0.33.0.0.0.1" stroke-width="0.80857694" x="131.14311" y="263.9433" id="rect8209-6" stroke="#c1c1c1" fill="#1a1a1a" fill-opacity="1"/>
                                </g>
                                <rect  height="0.0562827" width="0.00540889" stroke-width="0" gorn="0.3.0.0.0.33.0.0.1" x="132.084" y="264.397" id="connector0terminal" stroke="none" fill="none"/>
                            </g>
                        </g>
                    </g>
                </g>
            </g>
        </g>
    </g>
</svg>
