<?xml version='1.0' encoding='UTF-8' standalone='no'?>
<svg
  xmlns="http://www.w3.org/2000/svg"
  xmlns:svg="http://www.w3.org/2000/svg"
  xmlns:rdf="http://www.w3.org/1999/02/22-rdf-syntax-ns#"
  xmlns:cc="http://creativecommons.org/ns#"
  xmlns:dc="http://purl.org/dc/elements/1.1/"
  shape-rendering="crispEdges"
  viewBox="0 0 911.1007 1509.9999"
  x="0in"
  width="0.91110069in"
  height="1.51in"
  version="1.2"
  y="0in"
  id="svg2">
  <metadata
    id="metadata27">
    <rdf:RDF>
      <cc:Work
        rdf:about="">
        <dc:format>image/svg+xml</dc:format>
        <dc:type
          rdf:resource="http://purl.org/dc/dcmitype/StillImage"
        />
      </cc:Work>
    </rdf:RDF>
  </metadata>
  <defs
    id="defs25">
    <linearGradient
      y1="4.9299998"
      href="#id0"
      y2="4.2379999"
      x1="4.6118999"
      x2="4.6118999"
      gradientUnits="userSpaceOnUse"
      id="linearGradient1227"
      gradientTransform="matrix(50.756707,0,0,53.302657,2864.665,-3566.5966)"
    />
    <linearGradient
      y1="4.9299998"
      href="#id0"
      y2="4.2379999"
      x1="4.6118999"
      x2="4.6118999"
      gradientUnits="userSpaceOnUse"
      id="linearGradient1227-0"
      gradientTransform="matrix(50.756707,0,0,53.302657,-441.94878,-204.52356)"
    />
  </defs>
  <desc
    id="desc4">
    <referenceFile>DHT22-gnd-vcc-dta-module_1_pcb.svg</referenceFile>
  </desc>
  <g
    id="silkscreen">
    <path
      id="rect2763"
      d="M 20.49083,20.49083 C 29.49832,10.4619 42.13446,7.69026 54.81128,5 h 801.29831 c 21.2555,2.98509 25.01866,10.34327 31.99128,16.89909 9.72122,6.19418 15.06566,6.67671 16.89919,26.812762 V 1455.5622 c 3.62545,22.3653 -2.36001,28.7123 -9.8579,32.5387 -11.57232,14.3677 -28.47925,12.7316 -43.45161,16.8991 H 61.03474 c -30.7502,-3.6421 -45.3908,-18.6953 -56.03468,-49.4378 v 0 L 5,48.711852 C 7.58305,26.40207 14.30117,24.76758 20.49083,20.49083 Z"
      fill="none"
      stroke="#000000"
      stroke-width="10"
    />
    <circle
      id="path790"
      cx="129.43776"
      cy="1418.5317"
      r="40"
      fill="#000000"
      stroke="none"
      stroke-width="0"
    />
    <circle
      id="circle872"
      cx="818.41412"
      cy="1418.5317"
      r="40"
      fill="#000000"
      stroke="none"
      stroke-width="0"
    />
  </g>
  <g
    id="copper1">
    <g
      id="copper0">
      <rect
        stroke-width="20"
        stroke="#ffbf00"
        fill="none"
        id="square"
        gorn="0.2.0.0"
        x="366.80966"
        height="58"
        width="58"
        y="1414.9829"
      />
      <circle
        stroke-width="20"
        stroke="#ffbf00"
        fill="none"
        id="connector0pin"
        gorn="0.2.0.1"
        cx="395.80966"
        cy="1443.9829"
        r="29"
      />
      <circle
        stroke-width="20"
        stroke="#ffbf00"
        fill="none"
        id="connector1pin"
        gorn="0.2.0.2"
        cx="495.74692"
        cy="1444.0222"
        r="29"
      />
      <circle
        stroke-width="20"
        stroke="#ffbf00"
        fill="none"
        id="connector2pin"
        gorn="0.2.0.3"
        cx="595.74689"
        cy="1444.0222"
        r="29"
      />
    </g>
  </g>
</svg>
